Patient5_TMGait_0pt45_1_right_13_GRF.mot
version=1
nRows=58
nColumns=19
inDegrees=no
endheader
time	F1x	F1y	F1z	M1x	M1y	M1z	F2x	F2y	F2z	M2x	M2y	M2z	EC1x	EC1y	EC1z	EC2x	EC2y	EC2z
21.38	-0.060712	844.2236	19.4339	-297.3433	-22.4558	834.4893	2.3345	-2.4355	-2.3853	0.29043	1.7252	-2.839	-0.0592	0.0182	-0.0073	-0.0462	0.0165	0.9585
21.3958	3.0789	853.7203	19.032	-300.3155	-21.2507	839.4452	1.4434	-1.1947	-1.3694	0.2627	0.96536	-1.3725	-0.0592	0.0182	-0.0073	-0.0462	0.0165	0.9585
21.4116	6.6648	863.2002	18.6833	-303.3139	-19.8386	843.6068	0.75361	-0.25199	-0.5714	0.23883	0.36516	-0.26996	-0.0592	0.0182	-0.0073	-0.0462	0.0165	0.9585
21.4274	10.2949	871.3493	18.6343	-305.8194	-18.5655	846.0874	0.30247	0.35896	-0.047712	0.22321	-0.031332	0.42823	-0.0592	0.0182	-0.0073	-0.0462	0.0165	0.9585
21.4431	13.6629	877.271	19.1043	-307.4456	-17.7349	846.3255	0.047475	0.70165	0.22737	0.21867	-0.23602	0.80563	-0.0592	0.0182	-0.0073	-0.0462	0.0165	0.9585
21.4589	16.6574	880.6831	20.148	-308.0509	-17.4456	844.2088	-0.075403	0.86993	0.32412	0.22821	-0.29761	0.97971	-0.0592	0.0182	-0.0073	-0.0462	0.0165	0.9585
21.4747	19.276	881.8213	21.6796	-307.7126	-17.6362	840.0406	-0.12289	0.94383	0.32097	0.25027	-0.27932	1.0355	-0.0592	0.0182	-0.0073	-0.0462	0.0165	0.9585
21.4905	21.5781	881.1568	23.5692	-306.6334	-18.1945	834.2792	-0.13541	0.97808	0.2806	0.27953	-0.23334	1.0497	-0.0592	0.0182	-0.0073	-0.0462	0.0165	0.9585
21.5063	23.6794	879.2354	25.6816	-305.0725	-18.9928	827.4106	-0.13813	1.0104	0.23873	0.31324	-0.18851	1.069	-0.0592	0.0182	-0.0073	-0.0462	0.0165	0.9585
21.5221	25.7228	876.6692	27.869	-303.3165	-19.878	819.9784	-0.14273	1.044	0.20292	0.34579	-0.14708	1.0972	-0.0592	0.0182	-0.0073	-0.0462	0.0165	0.9585
21.5379	27.8587	874.0515	29.985	-301.6299	-20.6871	812.4842	-0.15462	1.0484	0.17996	0.36141	-0.10877	1.1135	-0.0592	0.0182	-0.0073	-0.0462	0.0165	0.9585
21.5536	30.232	871.8157	31.9613	-300.1915	-21.3213	805.2649	-0.18652	0.94163	0.16493	0.32796	-0.063686	1.037	-0.0592	0.0182	-0.0073	-0.0462	0.0165	0.9585
21.5694	32.978	870.1606	33.8035	-299.0691	-21.7334	798.4433	-0.2435	0.60381	0.1428	0.20145	0.0022235	0.72715	-0.0592	0.0182	-0.0073	-0.0462	0.0165	0.9585
21.5852	36.2018	869.0956	35.5545	-298.247	-21.9102	791.9875	-0.3122	-0.097315	0.096631	-0.070595	0.098164	0.035576	-0.0592	0.0182	-0.0073	-0.0462	0.0165	0.9585
21.601	39.9369	868.5504	37.2668	-297.6751	-21.872	785.8349	-0.36036	-1.2742	0.018202	-0.5367	0.21265	-1.1658	-0.0592	0.0182	-0.0073	-0.0462	0.0165	0.9585
21.6168	44.1648	868.4534	38.9715	-297.2956	-21.6429	779.9134	-0.33239	-2.9787	-0.080217	-1.2217	0.29861	-2.938	-0.0592	0.0182	-0.0073	-0.0462	0.0165	0.9585
21.6326	48.8267	868.7493	40.714	-297.0515	-21.2679	774.1729	-0.13531	-5.1087	-0.15114	-2.0875	0.26536	-5.1813	-0.0592	0.0182	-0.0073	-0.0462	0.0165	0.9585
21.6484	53.89	869.3361	42.5465	-296.8664	-20.7831	768.5293	0.34549	-7.2356	-0.11819	-2.96	-0.002582	-7.4345	-0.0592	0.0182	-0.0073	-0.0462	0.0165	0.9585
21.6641	59.3409	870.0197	44.5032	-296.6395	-20.2049	762.812	1.2329	-8.4042	0.11546	-3.4462	-0.64351	-8.6854	-0.0592	0.0182	-0.0073	-0.0462	0.0165	0.9585
21.6799	65.1727	870.4982	46.5946	-296.2445	-19.5383	756.7685	2.6187	-6.9553	0.656	-2.8633	-1.7919	-7.1791	-0.0592	0.0182	-0.0073	-0.0462	0.0165	0.9585
21.6957	71.3741	870.306	48.7809	-295.5191	-18.755	750.0228	4.4789	-0.41884	1.5995	-0.19938	-3.5211	-0.30478	-0.0592	0.0182	-0.0073	-0.0462	0.0165	0.9585
21.7115	77.8606	868.726	50.9452	-294.2418	-17.793	742.0421	6.5321	14.2953	2.9848	5.8091	-5.7386	15.2027	-0.0592	0.0182	-0.0073	-0.0462	0.0165	0.9585
21.7273	84.4365	864.6778	52.8667	-292.1	-16.5536	732.0678	8.08	40.2287	4.7122	16.4066	-8.0366	42.5675	-0.0592	0.0182	-0.0073	-0.0462	0.0165	0.9585
21.7431	90.7906	856.6992	54.1703	-288.6784	-14.8575	719.0651	7.8449	79.0026	6.4059	32.2547	-9.4912	83.5388	-0.0592	0.0182	-0.0073	-0.0462	0.0165	0.9585
21.7589	96.5118	843.054	54.3834	-283.4799	-12.4943	701.7954	4.4864	129.1716	7.4672	52.7201	-8.9362	136.7412	-0.0592	0.0182	-0.0073	-0.0462	0.0165	0.9585
21.7746	101.1327	822.0314	53.0055	-276.0067	-9.2563	679.0516	-2.2241	184.5173	7.3228	75.1347	-5.7274	195.8321	-0.0592	0.0182	-0.0073	-0.0462	0.0165	0.9585
21.7904	104.2169	792.4138	49.7058	-265.8901	-5.06	649.9982	-10.9634	234.8369	4.8377	95.122	0.63217	250.1816	-0.0592	0.0182	-0.0073	-0.0462	0.0165	0.9585
21.8062	105.5215	753.9626	44.5814	-253.0346	-0.086987	614.541	-20.4205	273.036	-0.72474	109.6394	10.2511	292.2711	-0.0592	0.0182	-0.0073	-0.0462	0.0165	0.9585
21.822	105.0879	707.6118	38.2747	-237.6744	5.1801	573.5001	-29.5578	300.0862	-8.3752	119.1476	21.7318	322.8175	-0.0592	0.0182	-0.0073	-0.0462	0.0165	0.9585
21.8378	103.1238	654.9228	31.6969	-220.2287	10.1167	528.1577	-37.5541	320.9623	-16.527	125.8979	33.2011	346.6078	-0.0592	0.0182	-0.0073	-0.0462	0.0165	0.9585
21.8536	99.7621	597.3449	25.4599	-201.1057	14.2886	479.6623	-43.8647	340.935	-23.9049	132.2791	43.2054	368.6776	-0.0592	0.0182	-0.0073	-0.0462	0.0165	0.9585
21.8694	94.9473	535.9199	19.7292	-180.6216	17.5197	428.8269	-47.9901	364.4838	-29.9041	140.2928	50.9528	393.2309	-0.0592	0.0182	-0.0073	-0.0462	0.0165	0.9585
21.8851	88.4824	471.4639	14.4157	-159.0563	19.7656	376.2674	-49.4865	395.1697	-34.645	151.4889	56.3672	423.5762	-0.0592	0.0182	-0.0073	-0.0462	0.0165	0.9585
21.9009	80.1465	404.9752	9.4188	-136.7609	20.9961	322.7176	-48.1799	435.546	-38.3099	166.9713	59.54	462.0475	-0.0592	0.0182	-0.0073	-0.0462	0.0165	0.9585
21.9167	69.8584	338.0145	4.8404	-114.274	21.1003	269.3222	-44.3941	486.7878	-40.8613	187.2699	60.545	509.6932	-0.0592	0.0182	-0.0073	-0.0462	0.0165	0.9585
21.9325	57.8675	272.8672	0.92991	-92.3751	19.9922	217.7536	-38.9079	548.096	-42.264	212.0732	59.638	565.7173	-0.0592	0.0182	-0.0073	-0.0462	0.0165	0.9585
21.9483	44.8612	212.2465	-2.0779	-71.9837	17.7623	169.9847	-32.5098	616.1728	-42.7883	239.9869	57.3676	626.9285	-0.0592	0.0182	-0.0073	-0.0462	0.0165	0.9585
21.9641	31.8772	158.5525	-4.0561	-53.9141	14.706	127.7349	-25.5823	685.4415	-43.1451	268.6182	54.5449	687.9695	-0.0592	0.0182	-0.0073	-0.0462	0.0165	0.9585
21.9799	19.9724	113.3496	-5.0273	-38.6917	11.2375	92.1107	-17.997	749.5015	-44.0769	295.2001	51.83	742.7682	-0.0592	0.0182	-0.0073	-0.0462	0.0165	0.9585
21.9956	10.0185	77.22	-5.1127	-26.5046	7.7733	63.5166	-9.3266	803.0806	-45.9094	317.4304	49.3933	786.4769	-0.0592	0.0182	-0.0073	-0.0462	0.0165	0.9585
22.0114	2.6559	49.6874	-4.5311	-17.1862	4.7087	41.5892	0.82883	843.1955	-48.5871	333.9698	47.0651	816.6003	-0.0592	0.0182	-0.0073	-0.0462	0.0165	0.9585
22.0272	-1.8373	29.5445	-3.5473	-10.3346	2.3398	25.4358	12.4802	869.5474	-51.982	344.5983	44.7539	833.337	-0.0592	0.0182	-0.0073	-0.0462	0.0165	0.9585
22.043	-3.6189	15.4978	-2.4039	-5.5266	0.79437	14.0722	24.8715	884.1066	-56.06	350.0556	42.7601	839.1082	-0.0592	0.0182	-0.0073	-0.0462	0.0165	0.9585
22.0588	-3.4104	6.5667	-1.3718	-2.45	0.039419	6.7472	36.2946	889.9233	-60.6163	351.6013	41.616	837.338	-0.0592	0.0182	-0.0073	-0.0462	0.0165	0.9585
22.0746	-2.2896	1.804	-0.64143	-0.79595	-0.14767	2.7737	44.5808	889.6027	-65.0998	350.4096	41.7195	830.9114	-0.0592	0.0182	-0.0073	-0.0462	0.0165	0.9585
22.0904	-0.96712	-0.031094	-0.19293	-0.14606	-0.044811	1.2245	48.434	884.448	-68.8517	347.1808	43.0143	821.2265	-0.0592	0.0182	-0.0073	-0.0462	0.0165	0.9585
22.1061	0.19668	-0.12625	0.027134	-0.095981	0.17437	1.1462	48.3086	875.2583	-71.3409	342.3911	44.8403	808.8922	-0.0592	0.0182	-0.0073	-0.0462	0.0165	0.9585
22.1219	1.0644	0.56623	0.11582	-0.31748	0.38445	1.7162	45.9132	863.2194	-72.4349	336.5904	46.3769	794.6488	-0.0592	0.0182	-0.0073	-0.0462	0.0165	0.9585
22.1377	1.6373	1.348	0.16701	-0.5696	0.51349	2.2971	43.1714	849.7386	-72.3643	330.3448	47.036	779.4025	-0.0592	0.0182	-0.0073	-0.0462	0.0165	0.9585
22.1535	1.9783	1.7482	0.23638	-0.68467	0.54142	2.4534	41.4618	836.0756	-71.4675	324.1302	46.5432	764.0227	-0.0592	0.0182	-0.0073	-0.0462	0.0165	0.9585
22.1693	2.1523	1.4628	0.38168	-0.54468	0.43232	1.8954	41.5565	823.2711	-70.0564	318.3403	44.8708	749.256	-0.0592	0.0182	-0.0073	-0.0462	0.0165	0.9585
22.1851	2.2118	0.29593	0.61971	-0.072012	0.17875	0.39945	43.6841	812.4679	-68.3678	313.4215	42.1616	735.9885	-0.0592	0.0182	-0.0073	-0.0462	0.0165	0.9585
22.2009	2.1669	-1.808	0.93942	0.75613	-0.21232	-2.1269	47.6102	804.9292	-66.5873	309.8712	38.7054	725.2729	-0.0592	0.0182	-0.0073	-0.0462	0.0165	0.9585
22.2166	1.9401	-4.6416	1.2761	1.8573	-0.70159	-5.4592	52.7278	801.7485	-64.8749	308.1083	34.9183	718.0695	-0.0592	0.0182	-0.0073	-0.0462	0.0165	0.9585
22.2324	1.3929	-7.5588	1.4662	2.9738	-1.1468	-8.8624	58.241	803.4622	-63.3625	308.3172	31.2579	714.904	-0.0592	0.0182	-0.0073	-0.0462	0.0165	0.9585
22.2482	0.36862	-9.22	1.2509	3.579	-1.2932	-10.818	63.4028	809.7961	-62.1138	310.3569	28.0863	715.642	-0.0592	0.0182	-0.0073	-0.0462	0.0165	0.9585
22.264	-1.273	-7.3396	0.22914	2.7776	-0.71114	-8.7205	67.6099	819.5294	-61.0981	313.7169	25.6037	719.388	-0.0592	0.0182	-0.0073	-0.0462	0.0165	0.9585
22.2798	-3.5503	1.4357	-2.0995	-0.7407	1.1989	1.2617	70.4705	830.4053	-60.1839	317.4898	23.8247	724.3608	-0.0592	0.0182	-0.0073	-0.0462	0.0165	0.9585
